<svg id="Camada_1" data-name="Camada 1" xmlns="http://www.w3.org/2000/svg" viewBox="0 0 1764.87 1222.52"><defs><style>.cls-1{fill:#94c358;}.cls-2{fill:#fff;}.cls-3{fill:#e3ffd2;}.cls-4{opacity:0.6;}.cls-5{fill:#3d3d3d;}.cls-6{fill:#ffbb01;}.cls-7{fill:#015700;}.cls-8{fill:#002b34;}.cls-9{fill:#ff4929;}</style></defs><title>fundo</title><polygon class="cls-1" points="1195.09 529.63 1187.24 978.21 1153.08 1219.7 1077.67 1218.99 1052.19 1218.74 931.12 1217.58 920.91 1070.32 906.39 600.33 1034.04 557.86 1034.04 557.86 1195.09 529.63"/><polygon class="cls-1" points="1438.84 1222.52 1381.61 1222.52 1217.51 1220.5 1219.87 926.19 1225.49 221.28 1419.1 368.46 1431.99 926.19 1438.84 1222.52"/><polygon class="cls-1" points="871.81 832.2 871.81 1216.26 769.12 1214.98 563.62 1212.47 548.92 767.74 871.81 832.2"/><polygon class="cls-1" points="1522.66 926.19 1522.66 1222.52 1381.61 1222.52 1217.51 1220.5 1153.08 1219.7 1077.67 1218.79 1081.76 786.01 1522.66 926.19"/><polygon class="cls-1" points="1613.72 555.65 1613.7 557.06 1608.49 1222.52 1473.19 1222.52 1476.76 926.19 1480.74 593.9 1613.72 555.65"/><polygon class="cls-1" points="1052.19 1028.29 1052.19 1218.47 931.12 1216.98 871.81 1216.26 769.12 1214.98 769.12 1028.29 1052.19 1028.29"/><polygon class="cls-2" points="1115.26 647.77 1093.79 644.55 1092.61 600.14 1115.26 598.52 1115.26 647.77"/><polygon class="cls-2" points="1393.31 604.91 1371.84 601.69 1370.66 557.28 1393.31 555.66 1393.31 604.91"/><polygon class="cls-2" points="1288.84 688.22 1267.37 684.99 1266.19 640.59 1288.84 638.97 1288.84 688.22"/><polygon class="cls-2" points="1288.84 396.97 1267.37 393.75 1266.19 349.35 1288.84 347.72 1288.84 396.97"/><polygon class="cls-2" points="1311.49 856.82 1290.01 853.6 1288.84 809.2 1311.49 807.58 1311.49 856.82"/><polygon class="cls-2" points="1115.26 975.44 1093.79 972.22 1092.61 927.81 1115.26 926.19 1115.26 975.44"/><polygon class="cls-2" points="1074.85 877.98 1053.37 874.76 1052.2 830.36 1074.85 828.74 1074.85 877.98"/><polygon class="cls-1" points="379.43 439.17 373.2 926.19 369.58 1210.09 294.03 1209.16 268.55 1208.84 146.96 1207.37 137.28 1028.29 106.42 457.91 163.36 453.99 308.98 443.99 379.43 439.17"/><polygon class="cls-1" points="655 1213.6 563.62 1212.47 474.47 1211.37 433.95 1210.87 436.23 926.19 441.86 221.28 635.47 368.46 648.36 926.19 655 1213.6"/><polygon class="cls-1" points="88.17 832.2 88.17 1206.63 50.37 1206.18 0 1205.55 1.15 1028.29 2.47 827.82 88.17 832.2"/><polygon class="cls-1" points="739.02 926.19 739.02 1214.62 689.65 1214.01 655 1213.6 563.62 1212.47 474.47 1211.37 433.95 1210.87 369.58 1210.09 294.03 1209.16 294.03 926.19 739.02 926.19"/><polygon class="cls-1" points="830.08 610.57 830.06 611.86 824.91 1215.68 816.19 1215.58 769.12 1215.04 739.02 1214.7 689.65 1214.15 693.12 950.28 697.11 645.64 830.08 610.57"/><polygon class="cls-1" points="268.55 1028.29 268.55 1208.84 146.96 1207.37 88.17 1206.63 50.37 1206.18 0 1205.55 1.15 1028.29 268.55 1028.29"/><polygon class="cls-1" points="308.98 472.35 165.55 472.35 158 408.86 308.98 408.86 308.98 472.35"/><polygon class="cls-1" points="268.56 440.6 205.96 440.6 205.96 290.66 273.12 285.13 268.56 440.6"/><rect class="cls-1" x="231.6" y="199.75" width="11.32" height="149.94"/><polygon class="cls-2" points="173.1 551.89 151.71 551.89 150.45 504.27 173.1 507.19 173.1 551.89"/><polygon class="cls-2" points="331.62 647.77 310.15 644.55 308.98 600.14 331.62 598.52 331.62 647.77"/><polygon class="cls-2" points="609.68 604.91 588.2 601.69 587.03 557.28 609.68 555.66 609.68 604.91"/><polygon class="cls-2" points="527.85 856.82 506.38 853.6 505.2 809.2 527.85 807.58 527.85 856.82"/><polygon class="cls-2" points="331.62 975.44 310.15 972.22 308.98 927.81 331.62 926.19 331.62 975.44"/><polygon class="cls-2" points="291.21 877.98 269.74 874.76 268.56 830.36 291.21 828.74 291.21 877.98"/><path class="cls-3" d="M928.42,234.34s-19.19-36.92-67.76-32.29-42.78,41.63-65.91,38.16-55.5,0-62.44,23.12S694.15,273.74,693,293.4s35.85,33.53,78.63,16.19,63.6,13.47,123.73,7.89,67.58-12.52,103.17-9.05,34.74-20.9,18.55-37.09S935.36,256.69,928.42,234.34Z" transform="translate(-33.13 -62.79)"/><path class="cls-3" d="M1610.74,101.61S1589,57.77,1534,63.27s-48.43,49.43-74.61,45.31-62.83,0-70.68,27.46-43.2,12.36-44.51,35.7,40.58,39.82,89,19.22,72,16,140.06,9.37,76.5-14.86,116.79-10.74,39.33-24.82,21-44S1618.59,128.15,1610.74,101.61Z" transform="translate(-33.13 -62.79)"/><path class="cls-3" d="M1626.52,516.73s-9.47-18.22-33.43-15.93-21.12,20.54-32.53,18.83-27.39,0-30.81,11.41-18.83,5.13-19.4,14.83,17.68,16.55,38.8,8,31.38,6.65,61,3.9,33.35-6.18,50.92-4.47,17.14-10.31,9.15-18.3S1630,527.76,1626.52,516.73Z" transform="translate(-33.13 -62.79)"/><g class="cls-4"><path class="cls-3" d="M1114.25,341.31s-12.59-24.21-44.44-21.18-28.06,27.31-43.23,25-36.4,0-40.95,15.17-25,6.82-25.79,19.72,23.51,22,51.57,10.61,41.71,8.84,81.15,5.18,44.32-8.21,67.66-5.93,22.79-13.71,12.17-24.33S1118.8,356,1114.25,341.31Z" transform="translate(-33.13 -62.79)"/></g><path class="cls-5" d="M1041.41,1260.05H602.74a33.26,33.26,0,0,1-33.24-32.28L547.7,483.59a33.25,33.25,0,0,1,33.23-34.23h479.78A33.26,33.26,0,0,1,1094,483.48l-19.31,744.18A33.25,33.25,0,0,1,1041.41,1260.05Z" transform="translate(-33.13 -62.79)"/><path class="cls-6" d="M584.3,1169.11,573.68,503.9a30.56,30.56,0,0,1,30.56-31h439.68a30.56,30.56,0,0,1,30.55,31.45L1055,1169.52a30.56,30.56,0,0,1-30.55,29.66H614.85A30.55,30.55,0,0,1,584.3,1169.11Z" transform="translate(-33.13 -62.79)"/><path class="cls-1" d="M702.73,1151.79a5.29,5.29,0,0,1-1.59-10.34c29.49-9.33,56.41-25.39,80-47.74a238.49,238.49,0,0,0,53.38-75.87c25-56.35,26.33-117.16,3.6-166.84-36.23-79.18-209-287.42-210.71-289.52a5.29,5.29,0,0,1,8.14-6.77c.44.53,44.24,53.29,92,115.23,64.27,83.37,104.71,142.81,120.2,176.66,24,52.43,22.69,116.42-3.55,175.54a249.28,249.28,0,0,1-55.78,79.26c-24.77,23.46-53.07,40.33-84.1,50.14A5.24,5.24,0,0,1,702.73,1151.79Z" transform="translate(-33.13 -62.79)"/><rect class="cls-1" x="671.53" y="567.81" width="199.37" height="9.71" transform="translate(-222.37 493.98) rotate(-35.65)"/><rect class="cls-1" x="756.51" y="668.06" width="270.39" height="9.71" transform="translate(-256.99 551.11) rotate(-34.01)"/><rect class="cls-1" x="854.34" y="526.84" width="9.71" height="152.85" transform="translate(-218.93 641.22) rotate(-40.58)"/><rect class="cls-1" x="818.52" y="765.18" width="242.46" height="9.71" transform="translate(-303.6 600.16) rotate(-34.27)"/><path class="cls-1" d="M912,965.41c-27.37,0-56.27-3.91-81.3-15.65-80.29-37.65-231.08-53.25-232.59-53.4l1-9.66c6.25.63,154,15.92,235.74,54.28,79.22,37.15,202.19-7.61,203.42-8.07l3.37,9.1a434.2,434.2,0,0,1-73.74,18.61A350.92,350.92,0,0,1,912,965.41Z" transform="translate(-33.13 -62.79)"/><path class="cls-1" d="M743.5,887.42s71,38.47,80.58,28.73S811.46,833.56,802.26,836,742.47,879.9,743.5,887.42Z" transform="translate(-33.13 -62.79)"/><path class="cls-1" d="M996,758.18S871.58,831.33,875.11,842.4s11.4,71.72,11,88.16,149.23-11.89,153.82-20.67,0-175.54,0-175.54Z" transform="translate(-33.13 -62.79)"/><path class="cls-1" d="M739.16,848.73,778.85,820a16.73,16.73,0,0,0,3.31-23.93L686.49,675.22a16.74,16.74,0,0,0-20.06-4.83l-31.67,14.45a16.72,16.72,0,0,0-7.09,24.32l87.65,135.12A16.73,16.73,0,0,0,739.16,848.73Z" transform="translate(-33.13 -62.79)"/><path class="cls-1" d="M605.12,870.37s100.8,16.9,100.25,8.82-86.13-143.21-95-142.7S605.12,870.37,605.12,870.37Z" transform="translate(-33.13 -62.79)"/><path class="cls-1" d="M801.44,568.92s-86,55.14-80.73,64S769.22,722,785.77,718,880.26,666.42,875,655,807.17,561.86,801.44,568.92Z" transform="translate(-33.13 -62.79)"/><path class="cls-1" d="M866,718.17s-61.27,36.2-56.52,42.22,22.41,31.9,30.64,30.73,71.71-39.41,68.79-45.88S872.57,714.22,866,718.17Z" transform="translate(-33.13 -62.79)"/><path class="cls-1" d="M958.5,661.31s-79,42.22-74.86,49.25,28.24,25.85,37.35,23.79,59.12-30.24,57.94-36.44S958.5,661.31,958.5,661.31Z" transform="translate(-33.13 -62.79)"/><path class="cls-1" d="M897.76,500.6s-49.41,38.72-45.29,44.62,50,77.67,62.35,77.67,97-52.29,97-61.15S964,493.48,958.5,493.48,897.76,500.6,897.76,500.6Z" transform="translate(-33.13 -62.79)"/><path class="cls-1" d="M660.71,545.22s34.62,49.09,44.66,47.2S818.2,511.57,816.88,505s-173.82-5.74-172,5.29S660.71,545.22,660.71,545.22Z" transform="translate(-33.13 -62.79)"/><path class="cls-1" d="M627.18,581.37s51.76,52.4,36.47,62-61.76,17.79-64.71,5.44S586.59,552.2,627.18,581.37Z" transform="translate(-33.13 -62.79)"/><path class="cls-1" d="M617.11,919.92s64.77,9.77,96.54,17.54,116.14,35.12,112.77,43.06S757,1107.45,688.14,1100.9s-89-17.09-89.55-46.11S585.87,910.49,617.11,919.92Z" transform="translate(-33.13 -62.79)"/><path class="cls-1" d="M1011,969.29S921.88,989.5,899.82,989s-23.8,33.89-36.61,55.07-34.86,63.76,3.08,68.06,139.89-53.85,139.89-53.85,34.2-1.36,35.79-23.91S1030,965.12,1011,969.29Z" transform="translate(-33.13 -62.79)"/><path class="cls-7" d="M926.56,491.48c-43.55,2.6-64.88,35.42-67.86,79-3,43.11,43.55,106,66.53,134.15a16.13,16.13,0,0,0,24.95.13c22.29-27,66.47-85.77,66.47-127.8C1016.65,533.31,980.66,488.24,926.56,491.48Zm5.53,129.32c-25.14-1-43.87-18.92-43.87-44.06s10.6-43.17,46.72-49.33c30.92-5.27,45.72,22.86,47.68,47.93C985,605.75,966.56,622.26,932.09,620.8Z" transform="translate(-33.13 -62.79)"/><path class="cls-8" d="M929.51,715.9A16.65,16.65,0,0,1,916.75,710c-21.68-25.32-71.9-89-69.92-133,1-22.62,7.06-41.87,17.52-55.65,11.55-15.21,28-23.82,49-25.58h0a83.49,83.49,0,0,1,63.47,21c17.83,16,28.82,39.53,29.39,62.94.44,18.43-7.39,42.14-23.28,70.47-13.19,23.52-29.15,45.25-40.23,59.33a16.75,16.75,0,0,1-12.91,6.4Zm-16-218.77c-20.59,1.73-36.76,10.16-48.07,25-10.3,13.57-16.26,32.55-17.25,54.9-2,43.53,48,106.84,69.6,132a15.46,15.46,0,0,0,23.91-.46c19.35-24.61,64.24-86.46,63.22-128.93-.56-23.05-11.38-46.22-28.95-62a82.15,82.15,0,0,0-62.46-20.62ZM923.88,626.3l-1.81,0h0c-12.44-.2-23.84-4.6-32.11-12.4a43.92,43.92,0,0,1-13.47-31.24c-.7-29,13.51-44.76,46.07-51.12,11.11-2.17,20.93-.18,29.17,5.93,11,8.13,18.61,23.62,20.45,41.43,1.45,14.26-1.63,25.63-9.16,33.81C954.82,621.61,941.3,626.3,923.88,626.3ZM931,532a42.44,42.44,0,0,0-8.16.82c-40.74,8-45.43,30.78-45,49.77a42.54,42.54,0,0,0,13,30.29c8,7.57,19.11,11.84,31.22,12h0c17.92.33,31.71-4.23,39.93-13.16,7.26-7.88,10.22-18.91,8.81-32.77-1.79-17.44-9.24-32.57-19.91-40.48A32.78,32.78,0,0,0,931,532Z" transform="translate(-33.13 -62.79)"/><path class="cls-9" d="M1690.62,561c-51.92,3.11-77.34,42.23-80.9,94.14-3.56,51.39,51.91,126.31,79.31,159.91a19.23,19.23,0,0,0,29.74.15C1745.33,783,1798,713,1798,662.86,1798,610.87,1755.09,557.14,1690.62,561Zm6.58,154.15c-30-1.21-52.29-22.55-52.29-52.51s12.64-51.46,55.69-58.8c36.86-6.28,54.49,27.24,56.84,57.13C1760.24,697.22,1738.29,716.89,1697.2,715.15Z" transform="translate(-33.13 -62.79)"/><path class="cls-8" d="M1689.81,823h-.13a20,20,0,0,1-15.46-7.44c-14.2-17.41-34.63-44.28-51.34-73.4-20.25-35.27-29.73-64.58-28.17-87.12,1.85-27,9.63-49.72,22.51-65.86,14.21-17.81,34.13-27.6,59.22-29.1h0c28.26-1.69,54.92,7.84,75.09,26.83,20.8,19.6,33.23,48,33.23,75.91,0,49.35-49.77,117-79.44,152.9A20.08,20.08,0,0,1,1689.81,823Zm-13.27-261.16c-24.56,1.47-44.06,11-57.94,28.44-12.65,15.86-20.3,38.29-22.13,64.88-3.58,51.79,54.14,128.65,79.12,159.29a18.2,18.2,0,0,0,14.1,6.79h.12a18.31,18.31,0,0,0,14.15-6.64c13.57-16.43,33.16-41.79,49.5-69.33,19.6-33,29.53-60.78,29.53-82.45,0-27.45-12.21-55.35-32.67-74.63-19.81-18.65-46-28-73.78-26.35Zm11.37,154.26c-1.6,0-3.22,0-4.87-.1h0c-14.84-.6-28.33-6.19-38-15.73s-15.17-23.07-15.17-37.67c0-34.62,17.41-53,56.43-59.67,13.33-2.28,25,.39,34.67,7.92,12.85,10,21.52,28.71,23.19,50,1.32,17.06-2.68,30.55-11.9,40.09C1722.68,710.94,1707.4,716.14,1687.91,716.14ZM1695.26,604a50.81,50.81,0,0,0-8.63.76c-20.41,3.47-34.63,10.22-43.47,20.61-7.73,9.09-11.49,21.29-11.49,37.32,0,14.13,5.2,27.06,14.64,36.41s22.4,14.64,36.8,15.22h0c21.3.9,37.87-4.11,47.91-14.5,8.85-9.17,12.69-22.2,11.41-38.73-1.63-20.81-10-39-22.52-48.75A39.09,39.09,0,0,0,1695.26,604Z" transform="translate(-33.13 -62.79)"/><path class="cls-7" d="M847,832.19a22.2,22.2,0,0,1-3.53-.28A21.94,21.94,0,0,1,829,823c-50.35-69.93-49.52-74.6-49-77.38a4.19,4.19,0,0,1,1.76-2.77l84.66-57.13a3.53,3.53,0,1,1,4,5.85l-83,56.05c1.63,4.31,10,19.31,47.42,71.26a15,15,0,0,0,9.83,6.07,14.79,14.79,0,0,0,11.1-2.65c25.61-18.61,93.73-67.28,172.86-117,80-50.29,127.42-49.94,169.26-49.64,4.72,0,9.6.07,14.36,0,18-.16,40.54.26,62.38.65,30.1.55,64.11,1.17,70.47-.32,1.56-3,1.82-16.46,2-26.39.55-27.64,1.23-62,18.25-67.38,11.84-3.71,35.72-5,59.42-3.21,19.58,1.47,43.74,5.35,47.63,15.42,2.13,5.5.29,21.32-3.42,51.16-4.55,36.56-11.42,91.81-2.11,103.11a3.34,3.34,0,0,0,2.48,1.45c2.85.2,6.27.47,10.15.78,30,2.35,92.28,7.26,119.69-3.48a3.53,3.53,0,1,1,2.58,6.57c-28.93,11.34-90,6.53-122.83,3.94-3.85-.3-7.25-.57-10.08-.77a10.45,10.45,0,0,1-7.44-4c-10.41-12.65-6.13-54.75.55-108.48,2.55-20.45,5.43-43.64,3.84-47.74-1.49-3.86-15.13-8.93-41.57-10.93-22.54-1.7-45.88-.5-56.78,2.92-12.17,3.82-12.85,38.1-13.3,60.78-.44,21.92-.83,30.9-6.26,32.78-5.71,2-31.62,1.61-73.42.85-21.79-.4-44.32-.81-62.19-.66-4.81,0-9.72,0-14.47,0-42.88-.32-87.22-.64-165.45,48.56C953.35,760.87,885.39,809.43,859.83,828A21.78,21.78,0,0,1,847,832.19Z" transform="translate(-33.13 -62.79)"/></svg>