<svg id="Camada_1" data-name="Camada 1" xmlns="http://www.w3.org/2000/svg" xmlns:xlink="http://www.w3.org/1999/xlink" viewBox="0 0 169.8 169.89"><defs><style>.cls-1,.cls-5{fill-rule:evenodd;}.cls-1{fill:url(#linear-gradient);}.cls-2,.cls-5{fill:#fff;}.cls-3{fill:url(#linear-gradient-2);}.cls-4{fill:url(#linear-gradient-3);}</style><linearGradient id="linear-gradient" x1="925.9" y1="726.11" x2="925.9" y2="563.72" gradientUnits="userSpaceOnUse"><stop offset="0" stop-color="#20b038"/><stop offset="1" stop-color="#60d66a"/></linearGradient><linearGradient id="linear-gradient-2" x1="925.9" y1="688.74" x2="925.9" y2="589.84" xlink:href="#linear-gradient"/><linearGradient id="linear-gradient-3" x1="925.9" y1="690.52" x2="925.9" y2="588.06" gradientUnits="userSpaceOnUse"><stop offset="0" stop-color="#f9f9f9"/><stop offset="1" stop-color="#fff"/></linearGradient></defs><title>icone wats</title><path class="cls-1" d="M878.38,554.34h95a37.48,37.48,0,0,1,37.38,37.39v95a37.49,37.49,0,0,1-37.38,37.46h-95A37.49,37.49,0,0,1,841,686.77v-95a37.48,37.48,0,0,1,37.38-37.39Z" transform="translate(-841 -554.34)"/><path class="cls-2" d="M874.9,690.52l7.21-26.31a50.79,50.79,0,1,1,44,25.43h0a50.9,50.9,0,0,1-24.27-6.18Zm28.17-16.25,1.54.91a42.08,42.08,0,0,0,21.49,5.88h0a42.21,42.21,0,1,0-35.75-19.77l1,1.59-4.26,15.58Z" transform="translate(-841 -554.34)"/><path class="cls-3" d="M876.67,688.74l7-25.39a49,49,0,1,1,42.49,24.54h0a49,49,0,0,1-23.43-6Z" transform="translate(-841 -554.34)"/><path class="cls-4" d="M874.9,690.52l7.21-26.31a50.79,50.79,0,1,1,44,25.43h0a50.9,50.9,0,0,1-24.27-6.18Zm28.17-16.25,1.54.91a42.08,42.08,0,0,0,21.49,5.88h0a42.21,42.21,0,1,0-35.75-19.77l1,1.59-4.26,15.58Z" transform="translate(-841 -554.34)"/><path class="cls-5" d="M913.42,617.6c-.95-2.11-1.95-2.15-2.85-2.19-.74,0-1.59,0-2.44,0a4.66,4.66,0,0,0-3.38,1.59,14.24,14.24,0,0,0-4.44,10.58c0,6.25,4.55,12.28,5.18,13.13s8.78,14.06,21.68,19.15c10.72,4.23,12.9,3.39,15.22,3.17s7.51-3.06,8.57-6,1.06-5.5.74-6-1.16-.85-2.43-1.48-7.51-3.71-8.67-4.13-2-.63-2.86.64-3.28,4.12-4,5-1.48.95-2.75.32a34.9,34.9,0,0,1-10.2-6.3,38.22,38.22,0,0,1-7.06-8.79c-.74-1.27-.08-1.95.56-2.59s1.27-1.48,1.9-2.22a8.78,8.78,0,0,0,1.27-2.11,2.35,2.35,0,0,0-.11-2.23C917,626.39,914.55,620.11,913.42,617.6Z" transform="translate(-841 -554.34)"/></svg>